<mxfile host="65bd71144e">
    <diagram id="K33IYDHAy8Wrw1-KLr_h" name="v1">
        <mxGraphModel dx="1938" dy="1710" grid="1" gridSize="10" guides="1" tooltips="1" connect="1" arrows="1" fold="1" page="1" pageScale="1" pageWidth="850" pageHeight="1100" math="0" shadow="0">
            <root>
                <mxCell id="0"/>
                <mxCell id="1" parent="0"/>
                <mxCell id="14" style="edgeStyle=none;html=1;exitX=0;exitY=0.5;exitDx=0;exitDy=0;entryX=1;entryY=0.5;entryDx=0;entryDy=0;" parent="1" source="2" target="5" edge="1">
                    <mxGeometry relative="1" as="geometry"/>
                </mxCell>
                <mxCell id="77" style="edgeStyle=none;html=1;exitX=1;exitY=0.5;exitDx=0;exitDy=0;entryX=0;entryY=0.5;entryDx=0;entryDy=0;" parent="1" source="2" target="6" edge="1">
                    <mxGeometry relative="1" as="geometry"/>
                </mxCell>
                <mxCell id="119" style="edgeStyle=none;html=1;exitX=0.25;exitY=0;exitDx=0;exitDy=0;entryX=0.5;entryY=1;entryDx=0;entryDy=0;" parent="1" source="2" target="118" edge="1">
                    <mxGeometry relative="1" as="geometry"/>
                </mxCell>
                <mxCell id="2" value="what do people consider when buying" style="rounded=1;whiteSpace=wrap;html=1;" parent="1" vertex="1">
                    <mxGeometry x="350" y="170" width="120" height="60" as="geometry"/>
                </mxCell>
                <mxCell id="16" style="edgeStyle=none;html=1;exitX=0.75;exitY=0;exitDx=0;exitDy=0;entryX=0.5;entryY=1;entryDx=0;entryDy=0;" parent="1" source="3" target="11" edge="1">
                    <mxGeometry relative="1" as="geometry"/>
                </mxCell>
                <mxCell id="17" style="edgeStyle=none;html=1;exitX=0.25;exitY=0;exitDx=0;exitDy=0;entryX=0.5;entryY=1;entryDx=0;entryDy=0;" parent="1" source="3" target="12" edge="1">
                    <mxGeometry relative="1" as="geometry"/>
                </mxCell>
                <mxCell id="18" style="edgeStyle=none;html=1;exitX=0;exitY=0.25;exitDx=0;exitDy=0;entryX=1;entryY=0.5;entryDx=0;entryDy=0;" parent="1" source="3" target="13" edge="1">
                    <mxGeometry relative="1" as="geometry"/>
                </mxCell>
                <mxCell id="36" style="edgeStyle=none;html=1;exitX=0;exitY=0.5;exitDx=0;exitDy=0;entryX=1;entryY=0.5;entryDx=0;entryDy=0;" parent="1" source="3" target="7" edge="1">
                    <mxGeometry relative="1" as="geometry"/>
                </mxCell>
                <mxCell id="39" style="edgeStyle=none;html=1;exitX=0;exitY=0.75;exitDx=0;exitDy=0;entryX=1;entryY=0.5;entryDx=0;entryDy=0;" parent="1" source="3" target="38" edge="1">
                    <mxGeometry relative="1" as="geometry"/>
                </mxCell>
                <mxCell id="47" style="edgeStyle=none;html=1;exitX=1;exitY=0.5;exitDx=0;exitDy=0;entryX=0;entryY=0.5;entryDx=0;entryDy=0;" parent="1" source="3" target="42" edge="1">
                    <mxGeometry relative="1" as="geometry"/>
                </mxCell>
                <mxCell id="3" value="Characteristic of the property" style="rounded=1;whiteSpace=wrap;html=1;" parent="1" vertex="1">
                    <mxGeometry x="-100" y="40" width="120" height="60" as="geometry"/>
                </mxCell>
                <mxCell id="15" style="edgeStyle=none;html=1;exitX=0;exitY=0.25;exitDx=0;exitDy=0;entryX=0.75;entryY=1;entryDx=0;entryDy=0;" parent="1" source="5" target="3" edge="1">
                    <mxGeometry relative="1" as="geometry"/>
                </mxCell>
                <mxCell id="20" style="edgeStyle=none;html=1;exitX=0;exitY=0.5;exitDx=0;exitDy=0;entryX=1;entryY=0.5;entryDx=0;entryDy=0;" parent="1" source="5" target="19" edge="1">
                    <mxGeometry relative="1" as="geometry"/>
                </mxCell>
                <mxCell id="5" value="Micro: attributes specific to this property" style="rounded=1;whiteSpace=wrap;html=1;" parent="1" vertex="1">
                    <mxGeometry x="60" y="170" width="120" height="60" as="geometry"/>
                </mxCell>
                <mxCell id="76" style="edgeStyle=none;html=1;exitX=0.25;exitY=1;exitDx=0;exitDy=0;entryX=0.5;entryY=0;entryDx=0;entryDy=0;" parent="1" source="6" target="52" edge="1">
                    <mxGeometry relative="1" as="geometry"/>
                </mxCell>
                <mxCell id="102" style="edgeStyle=none;html=1;exitX=1;exitY=0.5;exitDx=0;exitDy=0;entryX=0;entryY=0.5;entryDx=0;entryDy=0;" parent="1" source="6" target="98" edge="1">
                    <mxGeometry relative="1" as="geometry"/>
                </mxCell>
                <mxCell id="6" value="Macro: attributes of the neighbourhood this property is in" style="rounded=1;whiteSpace=wrap;html=1;" parent="1" vertex="1">
                    <mxGeometry x="640" y="170" width="120" height="60" as="geometry"/>
                </mxCell>
                <mxCell id="43" style="edgeStyle=none;html=1;exitX=0;exitY=0.5;exitDx=0;exitDy=0;entryX=1;entryY=0.5;entryDx=0;entryDy=0;" parent="1" source="7" target="37" edge="1">
                    <mxGeometry relative="1" as="geometry"/>
                </mxCell>
                <mxCell id="7" value="Style and aesthetic" style="rounded=1;whiteSpace=wrap;html=1;" parent="1" vertex="1">
                    <mxGeometry x="-305" y="10" width="120" height="60" as="geometry"/>
                </mxCell>
                <mxCell id="30" style="edgeStyle=none;html=1;exitX=0.5;exitY=0;exitDx=0;exitDy=0;entryX=0.5;entryY=1;entryDx=0;entryDy=0;" parent="1" source="11" target="29" edge="1">
                    <mxGeometry relative="1" as="geometry"/>
                </mxCell>
                <mxCell id="41" style="edgeStyle=none;html=1;exitX=1;exitY=0.5;exitDx=0;exitDy=0;entryX=0;entryY=0.5;entryDx=0;entryDy=0;" parent="1" source="11" target="40" edge="1">
                    <mxGeometry relative="1" as="geometry"/>
                </mxCell>
                <mxCell id="11" value="Layout and oritentation" style="rounded=1;whiteSpace=wrap;html=1;" parent="1" vertex="1">
                    <mxGeometry x="40" y="-110" width="120" height="60" as="geometry"/>
                </mxCell>
                <mxCell id="32" style="edgeStyle=none;html=1;exitX=0.5;exitY=0;exitDx=0;exitDy=0;" parent="1" source="12" target="31" edge="1">
                    <mxGeometry relative="1" as="geometry"/>
                </mxCell>
                <mxCell id="12" value="Type of dwelling" style="rounded=1;whiteSpace=wrap;html=1;" parent="1" vertex="1">
                    <mxGeometry x="-150" y="-120" width="120" height="60" as="geometry"/>
                </mxCell>
                <mxCell id="34" style="edgeStyle=none;html=1;exitX=0.5;exitY=0;exitDx=0;exitDy=0;entryX=0.5;entryY=1;entryDx=0;entryDy=0;" parent="1" source="13" target="33" edge="1">
                    <mxGeometry relative="1" as="geometry"/>
                </mxCell>
                <mxCell id="35" value="?" style="edgeLabel;html=1;align=center;verticalAlign=middle;resizable=0;points=[];" parent="34" vertex="1" connectable="0">
                    <mxGeometry x="0.2059" y="-3" relative="1" as="geometry">
                        <mxPoint as="offset"/>
                    </mxGeometry>
                </mxCell>
                <mxCell id="13" value="Construction quality and material" style="rounded=1;whiteSpace=wrap;html=1;" parent="1" vertex="1">
                    <mxGeometry x="-300" y="-90" width="120" height="60" as="geometry"/>
                </mxCell>
                <mxCell id="25" style="edgeStyle=none;html=1;exitX=0.25;exitY=0;exitDx=0;exitDy=0;entryX=0.5;entryY=1;entryDx=0;entryDy=0;" parent="1" source="19" target="21" edge="1">
                    <mxGeometry relative="1" as="geometry"/>
                </mxCell>
                <mxCell id="26" style="edgeStyle=none;html=1;exitX=0;exitY=0.25;exitDx=0;exitDy=0;entryX=1;entryY=0.5;entryDx=0;entryDy=0;" parent="1" source="19" target="22" edge="1">
                    <mxGeometry relative="1" as="geometry"/>
                </mxCell>
                <mxCell id="28" style="edgeStyle=none;html=1;exitX=0.5;exitY=1;exitDx=0;exitDy=0;entryX=0.5;entryY=0;entryDx=0;entryDy=0;" parent="1" source="19" target="24" edge="1">
                    <mxGeometry relative="1" as="geometry"/>
                </mxCell>
                <mxCell id="51" style="edgeStyle=none;html=1;exitX=0.25;exitY=1;exitDx=0;exitDy=0;" parent="1" source="19" target="48" edge="1">
                    <mxGeometry relative="1" as="geometry"/>
                </mxCell>
                <mxCell id="110" style="edgeStyle=none;html=1;exitX=0.75;exitY=1;exitDx=0;exitDy=0;" parent="1" source="19" target="109" edge="1">
                    <mxGeometry relative="1" as="geometry"/>
                </mxCell>
                <mxCell id="19" value="Land" style="rounded=1;whiteSpace=wrap;html=1;" parent="1" vertex="1">
                    <mxGeometry x="-170" y="370" width="120" height="60" as="geometry"/>
                </mxCell>
                <mxCell id="50" style="edgeStyle=none;html=1;exitX=0;exitY=0.5;exitDx=0;exitDy=0;entryX=1;entryY=0.5;entryDx=0;entryDy=0;" parent="1" source="21" target="49" edge="1">
                    <mxGeometry relative="1" as="geometry"/>
                </mxCell>
                <mxCell id="21" value="Size" style="rounded=1;whiteSpace=wrap;html=1;" parent="1" vertex="1">
                    <mxGeometry x="-240" y="260" width="120" height="60" as="geometry"/>
                </mxCell>
                <mxCell id="22" value="Shape and gradient" style="rounded=1;whiteSpace=wrap;html=1;" parent="1" vertex="1">
                    <mxGeometry x="-460" y="350" width="120" height="60" as="geometry"/>
                </mxCell>
                <mxCell id="73" style="edgeStyle=none;html=1;" parent="1" source="24" target="72" edge="1">
                    <mxGeometry relative="1" as="geometry"/>
                </mxCell>
                <mxCell id="24" value="Fire / flood risk" style="rounded=1;whiteSpace=wrap;html=1;" parent="1" vertex="1">
                    <mxGeometry x="-210" y="510" width="120" height="60" as="geometry"/>
                </mxCell>
                <mxCell id="29" value="Match with preference: e.g. Main bed room should preferrably face North" style="rounded=1;whiteSpace=wrap;html=1;fillColor=#dae8fc;strokeColor=#6c8ebf;" parent="1" vertex="1">
                    <mxGeometry x="40" y="-230" width="120" height="60" as="geometry"/>
                </mxCell>
                <mxCell id="31" value="Verification of type - this can be mislabelled" style="rounded=1;whiteSpace=wrap;html=1;fillColor=#dae8fc;strokeColor=#6c8ebf;" parent="1" vertex="1">
                    <mxGeometry x="-150" y="-240" width="120" height="60" as="geometry"/>
                </mxCell>
                <mxCell id="33" value="Gather infromation or check from image??" style="rounded=1;whiteSpace=wrap;html=1;fillColor=#dae8fc;strokeColor=#6c8ebf;" parent="1" vertex="1">
                    <mxGeometry x="-340" y="-210" width="120" height="60" as="geometry"/>
                </mxCell>
                <mxCell id="37" value="Match with specific requirement e.g. I like modern style" style="rounded=1;whiteSpace=wrap;html=1;fillColor=#dae8fc;strokeColor=#6c8ebf;" parent="1" vertex="1">
                    <mxGeometry x="-480" y="-50" width="120" height="60" as="geometry"/>
                </mxCell>
                <mxCell id="46" style="edgeStyle=none;html=1;exitX=0;exitY=0.5;exitDx=0;exitDy=0;entryX=1;entryY=0.5;entryDx=0;entryDy=0;" parent="1" source="38" target="45" edge="1">
                    <mxGeometry relative="1" as="geometry"/>
                </mxCell>
                <mxCell id="38" value="Features" style="rounded=1;whiteSpace=wrap;html=1;" parent="1" vertex="1">
                    <mxGeometry x="-305" y="110" width="120" height="60" as="geometry"/>
                </mxCell>
                <mxCell id="40" value="E.g. I want a large living room with open kitchen" style="rounded=1;whiteSpace=wrap;html=1;fillColor=#dae8fc;strokeColor=#6c8ebf;" parent="1" vertex="1">
                    <mxGeometry x="210" y="-150" width="120" height="60" as="geometry"/>
                </mxCell>
                <mxCell id="42" value="Privacy" style="rounded=1;whiteSpace=wrap;html=1;" parent="1" vertex="1">
                    <mxGeometry x="110" y="10" width="120" height="60" as="geometry"/>
                </mxCell>
                <mxCell id="45" value="Description, highlight and match with specific request" style="rounded=1;whiteSpace=wrap;html=1;fillColor=#dae8fc;strokeColor=#6c8ebf;" parent="1" vertex="1">
                    <mxGeometry x="-480" y="110" width="120" height="60" as="geometry"/>
                </mxCell>
                <mxCell id="75" style="edgeStyle=none;html=1;exitX=0.156;exitY=0.993;exitDx=0;exitDy=0;entryX=0.5;entryY=0;entryDx=0;entryDy=0;exitPerimeter=0;" parent="1" source="48" target="74" edge="1">
                    <mxGeometry relative="1" as="geometry"/>
                </mxCell>
                <mxCell id="48" value="Frontyard backyard utility" style="rounded=1;whiteSpace=wrap;html=1;" parent="1" vertex="1">
                    <mxGeometry x="-380" y="450" width="120" height="60" as="geometry"/>
                </mxCell>
                <mxCell id="49" value="check against requiredment" style="rounded=1;whiteSpace=wrap;html=1;fillColor=#dae8fc;strokeColor=#6c8ebf;" parent="1" vertex="1">
                    <mxGeometry x="-410" y="230" width="120" height="60" as="geometry"/>
                </mxCell>
                <mxCell id="89" style="edgeStyle=none;html=1;exitX=0.5;exitY=1;exitDx=0;exitDy=0;entryX=0.5;entryY=0;entryDx=0;entryDy=0;" parent="1" source="52" target="79" edge="1">
                    <mxGeometry relative="1" as="geometry"/>
                </mxCell>
                <mxCell id="52" value="Location and Proximity to&amp;nbsp;" style="rounded=1;whiteSpace=wrap;html=1;" parent="1" vertex="1">
                    <mxGeometry x="460" y="370" width="120" height="60" as="geometry"/>
                </mxCell>
                <mxCell id="53" value="Closest public transport" style="rounded=1;whiteSpace=wrap;html=1;" parent="1" vertex="1">
                    <mxGeometry x="150" y="420" width="120" height="60" as="geometry"/>
                </mxCell>
                <mxCell id="54" value="Shopping grocery" style="rounded=1;whiteSpace=wrap;html=1;" parent="1" vertex="1">
                    <mxGeometry x="290" y="610" width="120" height="60" as="geometry"/>
                </mxCell>
                <mxCell id="55" value="Restaurants" style="rounded=1;whiteSpace=wrap;html=1;" parent="1" vertex="1">
                    <mxGeometry x="160" y="540" width="120" height="60" as="geometry"/>
                </mxCell>
                <mxCell id="56" value="Other locations of interest" style="rounded=1;whiteSpace=wrap;html=1;" parent="1" vertex="1">
                    <mxGeometry x="270" y="320" width="120" height="60" as="geometry"/>
                </mxCell>
                <mxCell id="63" value="Public parks" style="rounded=1;whiteSpace=wrap;html=1;" parent="1" vertex="1">
                    <mxGeometry x="570" y="630" width="120" height="60" as="geometry"/>
                </mxCell>
                <mxCell id="64" value="Beach" style="rounded=1;whiteSpace=wrap;html=1;" parent="1" vertex="1">
                    <mxGeometry x="440" y="630" width="120" height="60" as="geometry"/>
                </mxCell>
                <mxCell id="65" value="Schools" style="rounded=1;whiteSpace=wrap;html=1;" parent="1" vertex="1">
                    <mxGeometry x="670" y="550" width="120" height="60" as="geometry"/>
                </mxCell>
                <mxCell id="70" value="" style="shape=curlyBracket;whiteSpace=wrap;html=1;rounded=1;flipH=1;labelPosition=right;verticalLabelPosition=middle;align=left;verticalAlign=middle;rotation=90;" parent="1" vertex="1">
                    <mxGeometry x="548.75" y="300" width="20" height="832.5" as="geometry"/>
                </mxCell>
                <mxCell id="71" value="Tags + free text for search and summary" style="rounded=1;whiteSpace=wrap;html=1;fillColor=#dae8fc;strokeColor=#6c8ebf;" parent="1" vertex="1">
                    <mxGeometry x="425" y="736.25" width="120" height="60" as="geometry"/>
                </mxCell>
                <mxCell id="72" value="Look up against elevation change in google map?" style="rounded=1;whiteSpace=wrap;html=1;fillColor=#dae8fc;strokeColor=#6c8ebf;" parent="1" vertex="1">
                    <mxGeometry x="-250" y="610" width="120" height="60" as="geometry"/>
                </mxCell>
                <mxCell id="74" value="AI assessment" style="rounded=1;whiteSpace=wrap;html=1;fillColor=#dae8fc;strokeColor=#6c8ebf;" parent="1" vertex="1">
                    <mxGeometry x="-480" y="540" width="120" height="60" as="geometry"/>
                </mxCell>
                <mxCell id="86" style="edgeStyle=none;html=1;exitX=0;exitY=0.25;exitDx=0;exitDy=0;" parent="1" source="78" target="53" edge="1">
                    <mxGeometry relative="1" as="geometry"/>
                </mxCell>
                <mxCell id="87" style="edgeStyle=none;html=1;exitX=0;exitY=0.75;exitDx=0;exitDy=0;" parent="1" source="78" target="55" edge="1">
                    <mxGeometry relative="1" as="geometry"/>
                </mxCell>
                <mxCell id="88" style="edgeStyle=none;html=1;exitX=0.5;exitY=1;exitDx=0;exitDy=0;" parent="1" source="78" target="54" edge="1">
                    <mxGeometry relative="1" as="geometry"/>
                </mxCell>
                <mxCell id="78" value="Life essentials" style="rounded=1;whiteSpace=wrap;html=1;" parent="1" vertex="1">
                    <mxGeometry x="340" y="480" width="120" height="60" as="geometry"/>
                </mxCell>
                <mxCell id="90" style="edgeStyle=none;html=1;exitX=0.25;exitY=1;exitDx=0;exitDy=0;" parent="1" source="79" target="64" edge="1">
                    <mxGeometry relative="1" as="geometry"/>
                </mxCell>
                <mxCell id="79" value="Lifestyle amenities" style="rounded=1;whiteSpace=wrap;html=1;" parent="1" vertex="1">
                    <mxGeometry x="520" y="530" width="120" height="60" as="geometry"/>
                </mxCell>
                <mxCell id="97" style="edgeStyle=none;html=1;exitX=1;exitY=0.25;exitDx=0;exitDy=0;" parent="1" source="80" target="81" edge="1">
                    <mxGeometry relative="1" as="geometry"/>
                </mxCell>
                <mxCell id="80" value="Noise / Pollution Sources" style="rounded=1;whiteSpace=wrap;html=1;" parent="1" vertex="1">
                    <mxGeometry x="670" y="390" width="120" height="60" as="geometry"/>
                </mxCell>
                <mxCell id="81" value="Major road" style="rounded=1;whiteSpace=wrap;html=1;" parent="1" vertex="1">
                    <mxGeometry x="870" y="360" width="120" height="60" as="geometry"/>
                </mxCell>
                <mxCell id="82" value="Construction sites" style="rounded=1;whiteSpace=wrap;html=1;" parent="1" vertex="1">
                    <mxGeometry x="880" y="430" width="120" height="60" as="geometry"/>
                </mxCell>
                <mxCell id="83" value="Airport / others" style="rounded=1;whiteSpace=wrap;html=1;" parent="1" vertex="1">
                    <mxGeometry x="840" y="530" width="120" height="60" as="geometry"/>
                </mxCell>
                <mxCell id="84" style="edgeStyle=none;html=1;exitX=0.007;exitY=0.376;exitDx=0;exitDy=0;entryX=0.971;entryY=0.59;entryDx=0;entryDy=0;entryPerimeter=0;exitPerimeter=0;" parent="1" source="52" target="56" edge="1">
                    <mxGeometry relative="1" as="geometry"/>
                </mxCell>
                <mxCell id="85" style="edgeStyle=none;html=1;entryX=0.829;entryY=0.043;entryDx=0;entryDy=0;entryPerimeter=0;" parent="1" source="52" target="78" edge="1">
                    <mxGeometry relative="1" as="geometry"/>
                </mxCell>
                <mxCell id="91" style="edgeStyle=none;html=1;exitX=0.75;exitY=1;exitDx=0;exitDy=0;entryX=0.358;entryY=0.031;entryDx=0;entryDy=0;entryPerimeter=0;" parent="1" source="79" target="63" edge="1">
                    <mxGeometry relative="1" as="geometry"/>
                </mxCell>
                <mxCell id="92" style="edgeStyle=none;html=1;exitX=1;exitY=0.5;exitDx=0;exitDy=0;entryX=0.031;entryY=0.662;entryDx=0;entryDy=0;entryPerimeter=0;" parent="1" source="79" target="65" edge="1">
                    <mxGeometry relative="1" as="geometry"/>
                </mxCell>
                <mxCell id="93" style="edgeStyle=none;html=1;exitX=1;exitY=0.5;exitDx=0;exitDy=0;entryX=0.023;entryY=0.65;entryDx=0;entryDy=0;entryPerimeter=0;" parent="1" source="52" target="80" edge="1">
                    <mxGeometry relative="1" as="geometry"/>
                </mxCell>
                <mxCell id="95" style="edgeStyle=none;html=1;exitX=0.75;exitY=1;exitDx=0;exitDy=0;entryX=0.081;entryY=0.064;entryDx=0;entryDy=0;entryPerimeter=0;" parent="1" source="80" target="83" edge="1">
                    <mxGeometry relative="1" as="geometry"/>
                </mxCell>
                <mxCell id="96" style="edgeStyle=none;html=1;exitX=1;exitY=0.5;exitDx=0;exitDy=0;entryX=0.024;entryY=0.417;entryDx=0;entryDy=0;entryPerimeter=0;" parent="1" source="80" target="82" edge="1">
                    <mxGeometry relative="1" as="geometry"/>
                </mxCell>
                <mxCell id="104" style="edgeStyle=none;html=1;exitX=1;exitY=0.25;exitDx=0;exitDy=0;entryX=0;entryY=0.5;entryDx=0;entryDy=0;" parent="1" source="98" target="99" edge="1">
                    <mxGeometry relative="1" as="geometry"/>
                </mxCell>
                <mxCell id="105" style="edgeStyle=none;html=1;exitX=1;exitY=0.5;exitDx=0;exitDy=0;entryX=0;entryY=0.5;entryDx=0;entryDy=0;" parent="1" source="98" target="100" edge="1">
                    <mxGeometry relative="1" as="geometry"/>
                </mxCell>
                <mxCell id="106" style="edgeStyle=none;html=1;exitX=1;exitY=0.75;exitDx=0;exitDy=0;entryX=0;entryY=0.25;entryDx=0;entryDy=0;" parent="1" source="98" target="103" edge="1">
                    <mxGeometry relative="1" as="geometry"/>
                </mxCell>
                <mxCell id="108" style="edgeStyle=none;html=1;exitX=0.5;exitY=1;exitDx=0;exitDy=0;entryX=0.5;entryY=0;entryDx=0;entryDy=0;" parent="1" source="98" target="107" edge="1">
                    <mxGeometry relative="1" as="geometry"/>
                </mxCell>
                <mxCell id="114" style="edgeStyle=none;html=1;exitX=0.5;exitY=0;exitDx=0;exitDy=0;entryX=0.5;entryY=1;entryDx=0;entryDy=0;" parent="1" source="98" target="113" edge="1">
                    <mxGeometry relative="1" as="geometry"/>
                </mxCell>
                <mxCell id="98" value="Neighboorhood - multilayer: suburb, LGA" style="rounded=1;whiteSpace=wrap;html=1;" parent="1" vertex="1">
                    <mxGeometry x="870" y="170" width="120" height="60" as="geometry"/>
                </mxCell>
                <mxCell id="99" value="Demographic summary + trend" style="rounded=1;whiteSpace=wrap;html=1;" parent="1" vertex="1">
                    <mxGeometry x="1040" y="70" width="120" height="60" as="geometry"/>
                </mxCell>
                <mxCell id="100" value="Crime and safety" style="rounded=1;whiteSpace=wrap;html=1;" parent="1" vertex="1">
                    <mxGeometry x="1040" y="160" width="120" height="60" as="geometry"/>
                </mxCell>
                <mxCell id="103" value="Medium price trend" style="rounded=1;whiteSpace=wrap;html=1;" parent="1" vertex="1">
                    <mxGeometry x="1040" y="250" width="120" height="60" as="geometry"/>
                </mxCell>
                <mxCell id="107" value="Reputation" style="rounded=1;whiteSpace=wrap;html=1;" parent="1" vertex="1">
                    <mxGeometry x="870" y="260" width="120" height="60" as="geometry"/>
                </mxCell>
                <mxCell id="109" value="Zoning" style="rounded=1;whiteSpace=wrap;html=1;" parent="1" vertex="1">
                    <mxGeometry x="-70" y="460" width="120" height="60" as="geometry"/>
                </mxCell>
                <mxCell id="117" style="edgeStyle=none;html=1;exitX=0.5;exitY=0;exitDx=0;exitDy=0;" parent="1" source="111" target="116" edge="1">
                    <mxGeometry relative="1" as="geometry"/>
                </mxCell>
                <mxCell id="111" value="housing affordability policies and schemes (education)" style="rounded=1;whiteSpace=wrap;html=1;" parent="1" vertex="1">
                    <mxGeometry x="530" y="10" width="120" height="60" as="geometry"/>
                </mxCell>
                <mxCell id="113" value="Development activity" style="rounded=1;whiteSpace=wrap;html=1;" parent="1" vertex="1">
                    <mxGeometry x="870" y="40" width="120" height="60" as="geometry"/>
                </mxCell>
                <mxCell id="115" value="Map overlay" style="rounded=1;whiteSpace=wrap;html=1;fillColor=#dae8fc;strokeColor=#6c8ebf;" parent="1" vertex="1">
                    <mxGeometry x="570" y="736.25" width="120" height="60" as="geometry"/>
                </mxCell>
                <mxCell id="116" value="Web search, summarization, AI agent to assess applicability" style="rounded=1;whiteSpace=wrap;html=1;fillColor=#dae8fc;strokeColor=#6c8ebf;" parent="1" vertex="1">
                    <mxGeometry x="620" y="-90" width="120" height="60" as="geometry"/>
                </mxCell>
                <mxCell id="120" style="edgeStyle=none;html=1;exitX=1;exitY=0.5;exitDx=0;exitDy=0;" parent="1" source="118" target="111" edge="1">
                    <mxGeometry relative="1" as="geometry"/>
                </mxCell>
                <mxCell id="118" value="Affordability" style="rounded=1;whiteSpace=wrap;html=1;" parent="1" vertex="1">
                    <mxGeometry x="320" y="40" width="120" height="60" as="geometry"/>
                </mxCell>
                <mxCell id="121" value="housing affordability policies and schemes (education)" style="rounded=1;whiteSpace=wrap;html=1;" parent="1" vertex="1">
                    <mxGeometry x="365" y="-70" width="120" height="60" as="geometry"/>
                </mxCell>
                <mxCell id="122" style="edgeStyle=none;html=1;exitX=0.5;exitY=0;exitDx=0;exitDy=0;entryX=0.412;entryY=0.978;entryDx=0;entryDy=0;entryPerimeter=0;" parent="1" source="118" target="121" edge="1">
                    <mxGeometry relative="1" as="geometry"/>
                </mxCell>
                <mxCell id="123" value="Deterministic affordability calculatior / simulation" style="rounded=1;whiteSpace=wrap;html=1;fillColor=#dae8fc;strokeColor=#6c8ebf;" parent="1" vertex="1">
                    <mxGeometry x="425" y="-180" width="120" height="60" as="geometry"/>
                </mxCell>
                <mxCell id="124" style="edgeStyle=none;html=1;exitX=0.5;exitY=0;exitDx=0;exitDy=0;entryX=0.326;entryY=0.983;entryDx=0;entryDy=0;entryPerimeter=0;" parent="1" source="121" target="123" edge="1">
                    <mxGeometry relative="1" as="geometry"/>
                </mxCell>
                <mxCell id="125" value="" style="shape=curlyBracket;whiteSpace=wrap;html=1;rounded=1;flipH=1;labelPosition=right;verticalLabelPosition=middle;align=left;verticalAlign=middle;rotation=0;" parent="1" vertex="1">
                    <mxGeometry x="1190" y="40" width="20" height="280" as="geometry"/>
                </mxCell>
                <mxCell id="126" value="Web search and agentic analysis" style="rounded=1;whiteSpace=wrap;html=1;fillColor=#dae8fc;strokeColor=#6c8ebf;" parent="1" vertex="1">
                    <mxGeometry x="1240" y="160" width="120" height="60" as="geometry"/>
                </mxCell>
            </root>
        </mxGraphModel>
    </diagram>
    <diagram name="v2" id="DXdtqnJQqPY1vSqi2jwo">
        <mxGraphModel dx="5202" dy="3540" grid="1" gridSize="10" guides="1" tooltips="1" connect="1" arrows="1" fold="1" page="1" pageScale="1" pageWidth="850" pageHeight="1100" math="0" shadow="0">
            <root>
                <mxCell id="RI9amsQpQYNxmYegU_Zl-0"/>
                <mxCell id="RI9amsQpQYNxmYegU_Zl-1" parent="RI9amsQpQYNxmYegU_Zl-0"/>
                <mxCell id="PaCVMnnu03Dj6zwFx1qM-0" value="" style="rounded=0;whiteSpace=wrap;html=1;" vertex="1" parent="RI9amsQpQYNxmYegU_Zl-1">
                    <mxGeometry x="-540" y="-270" width="1920" height="1120" as="geometry"/>
                </mxCell>
                <mxCell id="RI9amsQpQYNxmYegU_Zl-2" style="edgeStyle=none;html=1;exitX=0;exitY=0.5;exitDx=0;exitDy=0;entryX=1;entryY=0.5;entryDx=0;entryDy=0;" parent="RI9amsQpQYNxmYegU_Zl-1" source="RI9amsQpQYNxmYegU_Zl-5" target="RI9amsQpQYNxmYegU_Zl-15" edge="1">
                    <mxGeometry relative="1" as="geometry"/>
                </mxCell>
                <mxCell id="RI9amsQpQYNxmYegU_Zl-3" style="edgeStyle=none;html=1;exitX=1;exitY=0.5;exitDx=0;exitDy=0;entryX=0;entryY=0.5;entryDx=0;entryDy=0;" parent="RI9amsQpQYNxmYegU_Zl-1" source="RI9amsQpQYNxmYegU_Zl-5" target="RI9amsQpQYNxmYegU_Zl-18" edge="1">
                    <mxGeometry relative="1" as="geometry"/>
                </mxCell>
                <mxCell id="RI9amsQpQYNxmYegU_Zl-4" style="edgeStyle=none;html=1;exitX=0.25;exitY=0;exitDx=0;exitDy=0;entryX=0.5;entryY=1;entryDx=0;entryDy=0;" parent="RI9amsQpQYNxmYegU_Zl-1" source="RI9amsQpQYNxmYegU_Zl-5" target="RI9amsQpQYNxmYegU_Zl-100" edge="1">
                    <mxGeometry relative="1" as="geometry"/>
                </mxCell>
                <mxCell id="5Toz2B10r7eTxjFJUqE2-3" style="edgeStyle=none;html=1;exitX=0.75;exitY=0;exitDx=0;exitDy=0;entryX=0.25;entryY=1;entryDx=0;entryDy=0;" parent="RI9amsQpQYNxmYegU_Zl-1" source="RI9amsQpQYNxmYegU_Zl-5" target="RI9amsQpQYNxmYegU_Zl-95" edge="1">
                    <mxGeometry relative="1" as="geometry"/>
                </mxCell>
                <mxCell id="RI9amsQpQYNxmYegU_Zl-5" value="what do people consider when buying" style="rounded=1;whiteSpace=wrap;html=1;" parent="RI9amsQpQYNxmYegU_Zl-1" vertex="1">
                    <mxGeometry x="350" y="170" width="120" height="60" as="geometry"/>
                </mxCell>
                <mxCell id="RI9amsQpQYNxmYegU_Zl-6" style="edgeStyle=none;html=1;exitX=0.75;exitY=0;exitDx=0;exitDy=0;entryX=0.5;entryY=1;entryDx=0;entryDy=0;" parent="RI9amsQpQYNxmYegU_Zl-1" source="RI9amsQpQYNxmYegU_Zl-12" target="RI9amsQpQYNxmYegU_Zl-23" edge="1">
                    <mxGeometry relative="1" as="geometry"/>
                </mxCell>
                <mxCell id="RI9amsQpQYNxmYegU_Zl-7" style="edgeStyle=none;html=1;exitX=0.25;exitY=0;exitDx=0;exitDy=0;entryX=0.5;entryY=1;entryDx=0;entryDy=0;" parent="RI9amsQpQYNxmYegU_Zl-1" source="RI9amsQpQYNxmYegU_Zl-12" target="RI9amsQpQYNxmYegU_Zl-25" edge="1">
                    <mxGeometry relative="1" as="geometry"/>
                </mxCell>
                <mxCell id="RI9amsQpQYNxmYegU_Zl-8" style="edgeStyle=none;html=1;exitX=0;exitY=0.25;exitDx=0;exitDy=0;entryX=1;entryY=0.5;entryDx=0;entryDy=0;" parent="RI9amsQpQYNxmYegU_Zl-1" source="RI9amsQpQYNxmYegU_Zl-12" target="RI9amsQpQYNxmYegU_Zl-28" edge="1">
                    <mxGeometry relative="1" as="geometry"/>
                </mxCell>
                <mxCell id="RI9amsQpQYNxmYegU_Zl-9" style="edgeStyle=none;html=1;exitX=0;exitY=0.5;exitDx=0;exitDy=0;entryX=1;entryY=0.5;entryDx=0;entryDy=0;" parent="RI9amsQpQYNxmYegU_Zl-1" source="RI9amsQpQYNxmYegU_Zl-12" target="RI9amsQpQYNxmYegU_Zl-20" edge="1">
                    <mxGeometry relative="1" as="geometry"/>
                </mxCell>
                <mxCell id="RI9amsQpQYNxmYegU_Zl-10" style="edgeStyle=none;html=1;exitX=0;exitY=0.75;exitDx=0;exitDy=0;entryX=1;entryY=0.5;entryDx=0;entryDy=0;" parent="RI9amsQpQYNxmYegU_Zl-1" source="RI9amsQpQYNxmYegU_Zl-12" target="RI9amsQpQYNxmYegU_Zl-45" edge="1">
                    <mxGeometry relative="1" as="geometry"/>
                </mxCell>
                <mxCell id="RI9amsQpQYNxmYegU_Zl-11" style="edgeStyle=none;html=1;exitX=1;exitY=0.5;exitDx=0;exitDy=0;entryX=0;entryY=0.5;entryDx=0;entryDy=0;" parent="RI9amsQpQYNxmYegU_Zl-1" source="RI9amsQpQYNxmYegU_Zl-12" target="RI9amsQpQYNxmYegU_Zl-47" edge="1">
                    <mxGeometry relative="1" as="geometry"/>
                </mxCell>
                <mxCell id="RI9amsQpQYNxmYegU_Zl-12" value="Characteristic of the property" style="rounded=1;whiteSpace=wrap;html=1;" parent="RI9amsQpQYNxmYegU_Zl-1" vertex="1">
                    <mxGeometry x="-100" y="40" width="120" height="60" as="geometry"/>
                </mxCell>
                <mxCell id="RI9amsQpQYNxmYegU_Zl-13" style="edgeStyle=none;html=1;exitX=0;exitY=0.25;exitDx=0;exitDy=0;entryX=0.75;entryY=1;entryDx=0;entryDy=0;" parent="RI9amsQpQYNxmYegU_Zl-1" source="RI9amsQpQYNxmYegU_Zl-15" target="RI9amsQpQYNxmYegU_Zl-12" edge="1">
                    <mxGeometry relative="1" as="geometry"/>
                </mxCell>
                <mxCell id="RI9amsQpQYNxmYegU_Zl-14" style="edgeStyle=none;html=1;exitX=0;exitY=0.5;exitDx=0;exitDy=0;entryX=1;entryY=0.5;entryDx=0;entryDy=0;" parent="RI9amsQpQYNxmYegU_Zl-1" source="RI9amsQpQYNxmYegU_Zl-15" target="RI9amsQpQYNxmYegU_Zl-34" edge="1">
                    <mxGeometry relative="1" as="geometry"/>
                </mxCell>
                <mxCell id="RI9amsQpQYNxmYegU_Zl-15" value="Micro: attributes specific to this property" style="rounded=1;whiteSpace=wrap;html=1;" parent="RI9amsQpQYNxmYegU_Zl-1" vertex="1">
                    <mxGeometry x="60" y="170" width="120" height="60" as="geometry"/>
                </mxCell>
                <mxCell id="RI9amsQpQYNxmYegU_Zl-16" style="edgeStyle=none;html=1;exitX=0.25;exitY=1;exitDx=0;exitDy=0;entryX=0.5;entryY=0;entryDx=0;entryDy=0;" parent="RI9amsQpQYNxmYegU_Zl-1" source="RI9amsQpQYNxmYegU_Zl-18" target="RI9amsQpQYNxmYegU_Zl-53" edge="1">
                    <mxGeometry relative="1" as="geometry"/>
                </mxCell>
                <mxCell id="RI9amsQpQYNxmYegU_Zl-17" style="edgeStyle=none;html=1;exitX=1;exitY=0.5;exitDx=0;exitDy=0;entryX=0;entryY=0.5;entryDx=0;entryDy=0;" parent="RI9amsQpQYNxmYegU_Zl-1" source="RI9amsQpQYNxmYegU_Zl-18" target="RI9amsQpQYNxmYegU_Zl-88" edge="1">
                    <mxGeometry relative="1" as="geometry"/>
                </mxCell>
                <mxCell id="RI9amsQpQYNxmYegU_Zl-18" value="Macro: attributes of the neighbourhood this property is in" style="rounded=1;whiteSpace=wrap;html=1;" parent="RI9amsQpQYNxmYegU_Zl-1" vertex="1">
                    <mxGeometry x="640" y="170" width="120" height="60" as="geometry"/>
                </mxCell>
                <mxCell id="RI9amsQpQYNxmYegU_Zl-19" style="edgeStyle=none;html=1;exitX=0;exitY=0.5;exitDx=0;exitDy=0;entryX=1;entryY=0.5;entryDx=0;entryDy=0;" parent="RI9amsQpQYNxmYegU_Zl-1" source="RI9amsQpQYNxmYegU_Zl-20" target="RI9amsQpQYNxmYegU_Zl-43" edge="1">
                    <mxGeometry relative="1" as="geometry"/>
                </mxCell>
                <mxCell id="RI9amsQpQYNxmYegU_Zl-20" value="Style and aesthetic" style="rounded=1;whiteSpace=wrap;html=1;" parent="RI9amsQpQYNxmYegU_Zl-1" vertex="1">
                    <mxGeometry x="-305" y="10" width="120" height="60" as="geometry"/>
                </mxCell>
                <mxCell id="RI9amsQpQYNxmYegU_Zl-21" style="edgeStyle=none;html=1;exitX=0.5;exitY=0;exitDx=0;exitDy=0;entryX=0.5;entryY=1;entryDx=0;entryDy=0;" parent="RI9amsQpQYNxmYegU_Zl-1" source="RI9amsQpQYNxmYegU_Zl-23" target="RI9amsQpQYNxmYegU_Zl-40" edge="1">
                    <mxGeometry relative="1" as="geometry"/>
                </mxCell>
                <mxCell id="RI9amsQpQYNxmYegU_Zl-22" style="edgeStyle=none;html=1;exitX=1;exitY=0.5;exitDx=0;exitDy=0;entryX=0;entryY=0.5;entryDx=0;entryDy=0;" parent="RI9amsQpQYNxmYegU_Zl-1" source="RI9amsQpQYNxmYegU_Zl-23" target="RI9amsQpQYNxmYegU_Zl-46" edge="1">
                    <mxGeometry relative="1" as="geometry"/>
                </mxCell>
                <mxCell id="RI9amsQpQYNxmYegU_Zl-23" value="Layout and oritentation" style="rounded=1;whiteSpace=wrap;html=1;" parent="RI9amsQpQYNxmYegU_Zl-1" vertex="1">
                    <mxGeometry x="40" y="-110" width="120" height="60" as="geometry"/>
                </mxCell>
                <mxCell id="RI9amsQpQYNxmYegU_Zl-24" style="edgeStyle=none;html=1;exitX=0.5;exitY=0;exitDx=0;exitDy=0;" parent="RI9amsQpQYNxmYegU_Zl-1" source="RI9amsQpQYNxmYegU_Zl-25" target="RI9amsQpQYNxmYegU_Zl-41" edge="1">
                    <mxGeometry relative="1" as="geometry"/>
                </mxCell>
                <mxCell id="RI9amsQpQYNxmYegU_Zl-25" value="Type of dwelling" style="rounded=1;whiteSpace=wrap;html=1;" parent="RI9amsQpQYNxmYegU_Zl-1" vertex="1">
                    <mxGeometry x="-150" y="-120" width="120" height="60" as="geometry"/>
                </mxCell>
                <mxCell id="RI9amsQpQYNxmYegU_Zl-26" style="edgeStyle=none;html=1;exitX=0.5;exitY=0;exitDx=0;exitDy=0;entryX=0.5;entryY=1;entryDx=0;entryDy=0;" parent="RI9amsQpQYNxmYegU_Zl-1" source="RI9amsQpQYNxmYegU_Zl-28" target="RI9amsQpQYNxmYegU_Zl-42" edge="1">
                    <mxGeometry relative="1" as="geometry"/>
                </mxCell>
                <mxCell id="RI9amsQpQYNxmYegU_Zl-27" value="?" style="edgeLabel;html=1;align=center;verticalAlign=middle;resizable=0;points=[];" parent="RI9amsQpQYNxmYegU_Zl-26" vertex="1" connectable="0">
                    <mxGeometry x="0.2059" y="-3" relative="1" as="geometry">
                        <mxPoint as="offset"/>
                    </mxGeometry>
                </mxCell>
                <mxCell id="RI9amsQpQYNxmYegU_Zl-28" value="Construction quality and material" style="rounded=1;whiteSpace=wrap;html=1;" parent="RI9amsQpQYNxmYegU_Zl-1" vertex="1">
                    <mxGeometry x="-300" y="-90" width="120" height="60" as="geometry"/>
                </mxCell>
                <mxCell id="RI9amsQpQYNxmYegU_Zl-29" style="edgeStyle=none;html=1;exitX=0.25;exitY=0;exitDx=0;exitDy=0;entryX=0.5;entryY=1;entryDx=0;entryDy=0;" parent="RI9amsQpQYNxmYegU_Zl-1" source="RI9amsQpQYNxmYegU_Zl-34" target="RI9amsQpQYNxmYegU_Zl-36" edge="1">
                    <mxGeometry relative="1" as="geometry"/>
                </mxCell>
                <mxCell id="RI9amsQpQYNxmYegU_Zl-30" style="edgeStyle=none;html=1;exitX=0;exitY=0.25;exitDx=0;exitDy=0;entryX=1;entryY=0.5;entryDx=0;entryDy=0;" parent="RI9amsQpQYNxmYegU_Zl-1" source="RI9amsQpQYNxmYegU_Zl-34" target="RI9amsQpQYNxmYegU_Zl-37" edge="1">
                    <mxGeometry relative="1" as="geometry"/>
                </mxCell>
                <mxCell id="RI9amsQpQYNxmYegU_Zl-32" style="edgeStyle=none;html=1;exitX=0.25;exitY=1;exitDx=0;exitDy=0;" parent="RI9amsQpQYNxmYegU_Zl-1" source="RI9amsQpQYNxmYegU_Zl-34" target="RI9amsQpQYNxmYegU_Zl-50" edge="1">
                    <mxGeometry relative="1" as="geometry"/>
                </mxCell>
                <mxCell id="RI9amsQpQYNxmYegU_Zl-33" style="edgeStyle=none;html=1;exitX=0.75;exitY=1;exitDx=0;exitDy=0;" parent="RI9amsQpQYNxmYegU_Zl-1" source="RI9amsQpQYNxmYegU_Zl-34" target="RI9amsQpQYNxmYegU_Zl-93" edge="1">
                    <mxGeometry relative="1" as="geometry"/>
                </mxCell>
                <mxCell id="RI9amsQpQYNxmYegU_Zl-34" value="Land" style="rounded=1;whiteSpace=wrap;html=1;" parent="RI9amsQpQYNxmYegU_Zl-1" vertex="1">
                    <mxGeometry x="-170" y="370" width="120" height="60" as="geometry"/>
                </mxCell>
                <mxCell id="RI9amsQpQYNxmYegU_Zl-35" style="edgeStyle=none;html=1;exitX=0;exitY=0.5;exitDx=0;exitDy=0;entryX=1;entryY=0.5;entryDx=0;entryDy=0;" parent="RI9amsQpQYNxmYegU_Zl-1" source="RI9amsQpQYNxmYegU_Zl-36" target="RI9amsQpQYNxmYegU_Zl-51" edge="1">
                    <mxGeometry relative="1" as="geometry"/>
                </mxCell>
                <mxCell id="RI9amsQpQYNxmYegU_Zl-36" value="Size" style="rounded=1;whiteSpace=wrap;html=1;" parent="RI9amsQpQYNxmYegU_Zl-1" vertex="1">
                    <mxGeometry x="-240" y="260" width="120" height="60" as="geometry"/>
                </mxCell>
                <mxCell id="RI9amsQpQYNxmYegU_Zl-37" value="Shape and gradient" style="rounded=1;whiteSpace=wrap;html=1;" parent="RI9amsQpQYNxmYegU_Zl-1" vertex="1">
                    <mxGeometry x="-460" y="350" width="120" height="60" as="geometry"/>
                </mxCell>
                <mxCell id="RI9amsQpQYNxmYegU_Zl-38" style="edgeStyle=none;html=1;" parent="RI9amsQpQYNxmYegU_Zl-1" source="RI9amsQpQYNxmYegU_Zl-39" target="RI9amsQpQYNxmYegU_Zl-63" edge="1">
                    <mxGeometry relative="1" as="geometry"/>
                </mxCell>
                <mxCell id="RI9amsQpQYNxmYegU_Zl-39" value="Fire / flood risk" style="rounded=1;whiteSpace=wrap;html=1;" parent="RI9amsQpQYNxmYegU_Zl-1" vertex="1">
                    <mxGeometry x="970" y="540" width="120" height="60" as="geometry"/>
                </mxCell>
                <mxCell id="RI9amsQpQYNxmYegU_Zl-40" value="Match with preference: e.g. Main bed room should preferrably face North" style="rounded=1;whiteSpace=wrap;html=1;fillColor=#dae8fc;strokeColor=#6c8ebf;" parent="RI9amsQpQYNxmYegU_Zl-1" vertex="1">
                    <mxGeometry x="40" y="-230" width="120" height="60" as="geometry"/>
                </mxCell>
                <mxCell id="RI9amsQpQYNxmYegU_Zl-41" value="Verification of type - this can be mislabelled" style="rounded=1;whiteSpace=wrap;html=1;fillColor=#dae8fc;strokeColor=#6c8ebf;" parent="RI9amsQpQYNxmYegU_Zl-1" vertex="1">
                    <mxGeometry x="-150" y="-240" width="120" height="60" as="geometry"/>
                </mxCell>
                <mxCell id="RI9amsQpQYNxmYegU_Zl-42" value="Gather infromation or check from image??" style="rounded=1;whiteSpace=wrap;html=1;fillColor=#dae8fc;strokeColor=#6c8ebf;" parent="RI9amsQpQYNxmYegU_Zl-1" vertex="1">
                    <mxGeometry x="-340" y="-210" width="120" height="60" as="geometry"/>
                </mxCell>
                <mxCell id="RI9amsQpQYNxmYegU_Zl-43" value="Match with specific requirement e.g. I like modern style" style="rounded=1;whiteSpace=wrap;html=1;fillColor=#dae8fc;strokeColor=#6c8ebf;" parent="RI9amsQpQYNxmYegU_Zl-1" vertex="1">
                    <mxGeometry x="-480" y="-50" width="120" height="60" as="geometry"/>
                </mxCell>
                <mxCell id="RI9amsQpQYNxmYegU_Zl-44" style="edgeStyle=none;html=1;exitX=0;exitY=0.5;exitDx=0;exitDy=0;entryX=1;entryY=0.5;entryDx=0;entryDy=0;" parent="RI9amsQpQYNxmYegU_Zl-1" source="RI9amsQpQYNxmYegU_Zl-45" target="RI9amsQpQYNxmYegU_Zl-48" edge="1">
                    <mxGeometry relative="1" as="geometry"/>
                </mxCell>
                <mxCell id="RI9amsQpQYNxmYegU_Zl-45" value="Features" style="rounded=1;whiteSpace=wrap;html=1;" parent="RI9amsQpQYNxmYegU_Zl-1" vertex="1">
                    <mxGeometry x="-305" y="110" width="120" height="60" as="geometry"/>
                </mxCell>
                <mxCell id="RI9amsQpQYNxmYegU_Zl-46" value="E.g. I want a large living room with open kitchen" style="rounded=1;whiteSpace=wrap;html=1;fillColor=#dae8fc;strokeColor=#6c8ebf;" parent="RI9amsQpQYNxmYegU_Zl-1" vertex="1">
                    <mxGeometry x="210" y="-150" width="120" height="60" as="geometry"/>
                </mxCell>
                <mxCell id="RI9amsQpQYNxmYegU_Zl-47" value="Privacy" style="rounded=1;whiteSpace=wrap;html=1;" parent="RI9amsQpQYNxmYegU_Zl-1" vertex="1">
                    <mxGeometry x="110" y="10" width="120" height="60" as="geometry"/>
                </mxCell>
                <mxCell id="RI9amsQpQYNxmYegU_Zl-48" value="Description, highlight and match with specific request" style="rounded=1;whiteSpace=wrap;html=1;fillColor=#dae8fc;strokeColor=#6c8ebf;" parent="RI9amsQpQYNxmYegU_Zl-1" vertex="1">
                    <mxGeometry x="-480" y="110" width="120" height="60" as="geometry"/>
                </mxCell>
                <mxCell id="RI9amsQpQYNxmYegU_Zl-49" style="edgeStyle=none;html=1;exitX=0.156;exitY=0.993;exitDx=0;exitDy=0;entryX=0.5;entryY=0;entryDx=0;entryDy=0;exitPerimeter=0;" parent="RI9amsQpQYNxmYegU_Zl-1" source="RI9amsQpQYNxmYegU_Zl-50" target="RI9amsQpQYNxmYegU_Zl-64" edge="1">
                    <mxGeometry relative="1" as="geometry"/>
                </mxCell>
                <mxCell id="RI9amsQpQYNxmYegU_Zl-50" value="Frontyard backyard utility" style="rounded=1;whiteSpace=wrap;html=1;" parent="RI9amsQpQYNxmYegU_Zl-1" vertex="1">
                    <mxGeometry x="-380" y="450" width="120" height="60" as="geometry"/>
                </mxCell>
                <mxCell id="RI9amsQpQYNxmYegU_Zl-51" value="check against requiredment" style="rounded=1;whiteSpace=wrap;html=1;fillColor=#dae8fc;strokeColor=#6c8ebf;" parent="RI9amsQpQYNxmYegU_Zl-1" vertex="1">
                    <mxGeometry x="-410" y="230" width="120" height="60" as="geometry"/>
                </mxCell>
                <mxCell id="RI9amsQpQYNxmYegU_Zl-52" style="edgeStyle=none;html=1;exitX=0.5;exitY=1;exitDx=0;exitDy=0;entryX=0.5;entryY=0;entryDx=0;entryDy=0;" parent="RI9amsQpQYNxmYegU_Zl-1" source="RI9amsQpQYNxmYegU_Zl-53" target="RI9amsQpQYNxmYegU_Zl-70" edge="1">
                    <mxGeometry relative="1" as="geometry"/>
                </mxCell>
                <mxCell id="RI9amsQpQYNxmYegU_Zl-53" value="Location" style="rounded=1;whiteSpace=wrap;html=1;" parent="RI9amsQpQYNxmYegU_Zl-1" vertex="1">
                    <mxGeometry x="460" y="370" width="120" height="60" as="geometry"/>
                </mxCell>
                <mxCell id="RI9amsQpQYNxmYegU_Zl-54" value="Closest public transport" style="rounded=1;whiteSpace=wrap;html=1;" parent="RI9amsQpQYNxmYegU_Zl-1" vertex="1">
                    <mxGeometry x="150" y="420" width="120" height="60" as="geometry"/>
                </mxCell>
                <mxCell id="RI9amsQpQYNxmYegU_Zl-55" value="Shopping grocery" style="rounded=1;whiteSpace=wrap;html=1;" parent="RI9amsQpQYNxmYegU_Zl-1" vertex="1">
                    <mxGeometry x="290" y="610" width="120" height="60" as="geometry"/>
                </mxCell>
                <mxCell id="RI9amsQpQYNxmYegU_Zl-56" value="Restaurants" style="rounded=1;whiteSpace=wrap;html=1;" parent="RI9amsQpQYNxmYegU_Zl-1" vertex="1">
                    <mxGeometry x="160" y="540" width="120" height="60" as="geometry"/>
                </mxCell>
                <mxCell id="RI9amsQpQYNxmYegU_Zl-57" value="Other locations of interest" style="rounded=1;whiteSpace=wrap;html=1;" parent="RI9amsQpQYNxmYegU_Zl-1" vertex="1">
                    <mxGeometry x="270" y="320" width="120" height="60" as="geometry"/>
                </mxCell>
                <mxCell id="RI9amsQpQYNxmYegU_Zl-58" value="Public parks" style="rounded=1;whiteSpace=wrap;html=1;" parent="RI9amsQpQYNxmYegU_Zl-1" vertex="1">
                    <mxGeometry x="570" y="630" width="120" height="60" as="geometry"/>
                </mxCell>
                <mxCell id="RI9amsQpQYNxmYegU_Zl-59" value="Beach" style="rounded=1;whiteSpace=wrap;html=1;" parent="RI9amsQpQYNxmYegU_Zl-1" vertex="1">
                    <mxGeometry x="440" y="630" width="120" height="60" as="geometry"/>
                </mxCell>
                <mxCell id="RI9amsQpQYNxmYegU_Zl-60" value="Schools" style="rounded=1;whiteSpace=wrap;html=1;" parent="RI9amsQpQYNxmYegU_Zl-1" vertex="1">
                    <mxGeometry x="670" y="550" width="120" height="60" as="geometry"/>
                </mxCell>
                <mxCell id="RI9amsQpQYNxmYegU_Zl-61" value="" style="shape=curlyBracket;whiteSpace=wrap;html=1;rounded=1;flipH=1;labelPosition=right;verticalLabelPosition=middle;align=left;verticalAlign=middle;rotation=90;" parent="RI9amsQpQYNxmYegU_Zl-1" vertex="1">
                    <mxGeometry x="548.75" y="300" width="20" height="832.5" as="geometry"/>
                </mxCell>
                <mxCell id="RI9amsQpQYNxmYegU_Zl-62" value="Tags + free text for search and summary" style="rounded=1;whiteSpace=wrap;html=1;fillColor=#dae8fc;strokeColor=#6c8ebf;" parent="RI9amsQpQYNxmYegU_Zl-1" vertex="1">
                    <mxGeometry x="425" y="736.25" width="120" height="60" as="geometry"/>
                </mxCell>
                <mxCell id="RI9amsQpQYNxmYegU_Zl-63" value="Look up against elevation change in google map?" style="rounded=1;whiteSpace=wrap;html=1;fillColor=#dae8fc;strokeColor=#6c8ebf;" parent="RI9amsQpQYNxmYegU_Zl-1" vertex="1">
                    <mxGeometry x="1100" y="630" width="120" height="60" as="geometry"/>
                </mxCell>
                <mxCell id="RI9amsQpQYNxmYegU_Zl-64" value="AI assessment" style="rounded=1;whiteSpace=wrap;html=1;fillColor=#dae8fc;strokeColor=#6c8ebf;" parent="RI9amsQpQYNxmYegU_Zl-1" vertex="1">
                    <mxGeometry x="-480" y="540" width="120" height="60" as="geometry"/>
                </mxCell>
                <mxCell id="RI9amsQpQYNxmYegU_Zl-65" style="edgeStyle=none;html=1;exitX=0;exitY=0.25;exitDx=0;exitDy=0;" parent="RI9amsQpQYNxmYegU_Zl-1" source="RI9amsQpQYNxmYegU_Zl-68" target="RI9amsQpQYNxmYegU_Zl-54" edge="1">
                    <mxGeometry relative="1" as="geometry"/>
                </mxCell>
                <mxCell id="RI9amsQpQYNxmYegU_Zl-66" style="edgeStyle=none;html=1;exitX=0;exitY=0.75;exitDx=0;exitDy=0;" parent="RI9amsQpQYNxmYegU_Zl-1" source="RI9amsQpQYNxmYegU_Zl-68" target="RI9amsQpQYNxmYegU_Zl-56" edge="1">
                    <mxGeometry relative="1" as="geometry"/>
                </mxCell>
                <mxCell id="RI9amsQpQYNxmYegU_Zl-67" style="edgeStyle=none;html=1;exitX=0.5;exitY=1;exitDx=0;exitDy=0;" parent="RI9amsQpQYNxmYegU_Zl-1" source="RI9amsQpQYNxmYegU_Zl-68" target="RI9amsQpQYNxmYegU_Zl-55" edge="1">
                    <mxGeometry relative="1" as="geometry"/>
                </mxCell>
                <mxCell id="RI9amsQpQYNxmYegU_Zl-68" value="Life essentials" style="rounded=1;whiteSpace=wrap;html=1;" parent="RI9amsQpQYNxmYegU_Zl-1" vertex="1">
                    <mxGeometry x="340" y="480" width="120" height="60" as="geometry"/>
                </mxCell>
                <mxCell id="RI9amsQpQYNxmYegU_Zl-69" style="edgeStyle=none;html=1;exitX=0.25;exitY=1;exitDx=0;exitDy=0;" parent="RI9amsQpQYNxmYegU_Zl-1" source="RI9amsQpQYNxmYegU_Zl-70" target="RI9amsQpQYNxmYegU_Zl-59" edge="1">
                    <mxGeometry relative="1" as="geometry"/>
                </mxCell>
                <mxCell id="RI9amsQpQYNxmYegU_Zl-70" value="Lifestyle amenities" style="rounded=1;whiteSpace=wrap;html=1;" parent="RI9amsQpQYNxmYegU_Zl-1" vertex="1">
                    <mxGeometry x="520" y="530" width="120" height="60" as="geometry"/>
                </mxCell>
                <mxCell id="RI9amsQpQYNxmYegU_Zl-71" style="edgeStyle=none;html=1;" parent="RI9amsQpQYNxmYegU_Zl-1" source="RI9amsQpQYNxmYegU_Zl-72" target="RI9amsQpQYNxmYegU_Zl-73" edge="1">
                    <mxGeometry relative="1" as="geometry"/>
                </mxCell>
                <mxCell id="5Toz2B10r7eTxjFJUqE2-1" style="edgeStyle=none;html=1;exitX=0.5;exitY=1;exitDx=0;exitDy=0;" parent="RI9amsQpQYNxmYegU_Zl-1" source="RI9amsQpQYNxmYegU_Zl-72" target="5Toz2B10r7eTxjFJUqE2-0" edge="1">
                    <mxGeometry relative="1" as="geometry"/>
                </mxCell>
                <mxCell id="5Toz2B10r7eTxjFJUqE2-2" style="edgeStyle=none;html=1;exitX=0.75;exitY=1;exitDx=0;exitDy=0;" parent="RI9amsQpQYNxmYegU_Zl-1" source="RI9amsQpQYNxmYegU_Zl-72" target="RI9amsQpQYNxmYegU_Zl-39" edge="1">
                    <mxGeometry relative="1" as="geometry"/>
                </mxCell>
                <mxCell id="RI9amsQpQYNxmYegU_Zl-72" value="Environmental factors" style="rounded=1;whiteSpace=wrap;html=1;" parent="RI9amsQpQYNxmYegU_Zl-1" vertex="1">
                    <mxGeometry x="750" y="440" width="120" height="60" as="geometry"/>
                </mxCell>
                <mxCell id="RI9amsQpQYNxmYegU_Zl-73" value="Major road (noise)" style="rounded=1;whiteSpace=wrap;html=1;" parent="RI9amsQpQYNxmYegU_Zl-1" vertex="1">
                    <mxGeometry x="790" y="350" width="120" height="60" as="geometry"/>
                </mxCell>
                <mxCell id="RI9amsQpQYNxmYegU_Zl-74" value="Construction sites" style="rounded=1;whiteSpace=wrap;html=1;" parent="RI9amsQpQYNxmYegU_Zl-1" vertex="1">
                    <mxGeometry x="950" y="380" width="120" height="60" as="geometry"/>
                </mxCell>
                <mxCell id="RI9amsQpQYNxmYegU_Zl-75" value="Airport / others" style="rounded=1;whiteSpace=wrap;html=1;" parent="RI9amsQpQYNxmYegU_Zl-1" vertex="1">
                    <mxGeometry x="990" y="460" width="120" height="60" as="geometry"/>
                </mxCell>
                <mxCell id="RI9amsQpQYNxmYegU_Zl-76" style="edgeStyle=none;html=1;exitX=0.007;exitY=0.376;exitDx=0;exitDy=0;entryX=0.971;entryY=0.59;entryDx=0;entryDy=0;entryPerimeter=0;exitPerimeter=0;" parent="RI9amsQpQYNxmYegU_Zl-1" source="RI9amsQpQYNxmYegU_Zl-53" target="RI9amsQpQYNxmYegU_Zl-57" edge="1">
                    <mxGeometry relative="1" as="geometry"/>
                </mxCell>
                <mxCell id="RI9amsQpQYNxmYegU_Zl-77" style="edgeStyle=none;html=1;entryX=0.829;entryY=0.043;entryDx=0;entryDy=0;entryPerimeter=0;" parent="RI9amsQpQYNxmYegU_Zl-1" source="RI9amsQpQYNxmYegU_Zl-53" target="RI9amsQpQYNxmYegU_Zl-68" edge="1">
                    <mxGeometry relative="1" as="geometry"/>
                </mxCell>
                <mxCell id="RI9amsQpQYNxmYegU_Zl-78" style="edgeStyle=none;html=1;exitX=0.75;exitY=1;exitDx=0;exitDy=0;entryX=0.358;entryY=0.031;entryDx=0;entryDy=0;entryPerimeter=0;" parent="RI9amsQpQYNxmYegU_Zl-1" source="RI9amsQpQYNxmYegU_Zl-70" target="RI9amsQpQYNxmYegU_Zl-58" edge="1">
                    <mxGeometry relative="1" as="geometry"/>
                </mxCell>
                <mxCell id="RI9amsQpQYNxmYegU_Zl-79" style="edgeStyle=none;html=1;exitX=1;exitY=0.5;exitDx=0;exitDy=0;entryX=0.031;entryY=0.662;entryDx=0;entryDy=0;entryPerimeter=0;" parent="RI9amsQpQYNxmYegU_Zl-1" source="RI9amsQpQYNxmYegU_Zl-70" target="RI9amsQpQYNxmYegU_Zl-60" edge="1">
                    <mxGeometry relative="1" as="geometry"/>
                </mxCell>
                <mxCell id="RI9amsQpQYNxmYegU_Zl-80" style="edgeStyle=none;html=1;exitX=1;exitY=0.5;exitDx=0;exitDy=0;entryX=0.023;entryY=0.65;entryDx=0;entryDy=0;entryPerimeter=0;" parent="RI9amsQpQYNxmYegU_Zl-1" source="RI9amsQpQYNxmYegU_Zl-53" target="RI9amsQpQYNxmYegU_Zl-72" edge="1">
                    <mxGeometry relative="1" as="geometry"/>
                </mxCell>
                <mxCell id="RI9amsQpQYNxmYegU_Zl-81" style="edgeStyle=none;html=1;entryX=0.081;entryY=0.064;entryDx=0;entryDy=0;entryPerimeter=0;" parent="RI9amsQpQYNxmYegU_Zl-1" source="RI9amsQpQYNxmYegU_Zl-72" target="RI9amsQpQYNxmYegU_Zl-75" edge="1">
                    <mxGeometry relative="1" as="geometry"/>
                </mxCell>
                <mxCell id="RI9amsQpQYNxmYegU_Zl-82" style="edgeStyle=none;html=1;exitX=1;exitY=0.25;exitDx=0;exitDy=0;entryX=0.024;entryY=0.417;entryDx=0;entryDy=0;entryPerimeter=0;" parent="RI9amsQpQYNxmYegU_Zl-1" source="RI9amsQpQYNxmYegU_Zl-72" target="RI9amsQpQYNxmYegU_Zl-74" edge="1">
                    <mxGeometry relative="1" as="geometry"/>
                </mxCell>
                <mxCell id="RI9amsQpQYNxmYegU_Zl-83" style="edgeStyle=none;html=1;exitX=1;exitY=0.25;exitDx=0;exitDy=0;entryX=0;entryY=0.5;entryDx=0;entryDy=0;" parent="RI9amsQpQYNxmYegU_Zl-1" source="RI9amsQpQYNxmYegU_Zl-88" target="RI9amsQpQYNxmYegU_Zl-89" edge="1">
                    <mxGeometry relative="1" as="geometry"/>
                </mxCell>
                <mxCell id="RI9amsQpQYNxmYegU_Zl-84" style="edgeStyle=none;html=1;exitX=1;exitY=0.5;exitDx=0;exitDy=0;entryX=0;entryY=0.5;entryDx=0;entryDy=0;" parent="RI9amsQpQYNxmYegU_Zl-1" source="RI9amsQpQYNxmYegU_Zl-88" target="RI9amsQpQYNxmYegU_Zl-90" edge="1">
                    <mxGeometry relative="1" as="geometry"/>
                </mxCell>
                <mxCell id="RI9amsQpQYNxmYegU_Zl-85" style="edgeStyle=none;html=1;exitX=1;exitY=0.75;exitDx=0;exitDy=0;entryX=0;entryY=0.25;entryDx=0;entryDy=0;" parent="RI9amsQpQYNxmYegU_Zl-1" source="RI9amsQpQYNxmYegU_Zl-88" target="RI9amsQpQYNxmYegU_Zl-91" edge="1">
                    <mxGeometry relative="1" as="geometry"/>
                </mxCell>
                <mxCell id="RI9amsQpQYNxmYegU_Zl-86" style="edgeStyle=none;html=1;exitX=0.5;exitY=1;exitDx=0;exitDy=0;entryX=0.5;entryY=0;entryDx=0;entryDy=0;" parent="RI9amsQpQYNxmYegU_Zl-1" source="RI9amsQpQYNxmYegU_Zl-88" target="RI9amsQpQYNxmYegU_Zl-92" edge="1">
                    <mxGeometry relative="1" as="geometry"/>
                </mxCell>
                <mxCell id="RI9amsQpQYNxmYegU_Zl-87" style="edgeStyle=none;html=1;exitX=0.5;exitY=0;exitDx=0;exitDy=0;entryX=0.5;entryY=1;entryDx=0;entryDy=0;" parent="RI9amsQpQYNxmYegU_Zl-1" source="RI9amsQpQYNxmYegU_Zl-88" target="RI9amsQpQYNxmYegU_Zl-96" edge="1">
                    <mxGeometry relative="1" as="geometry"/>
                </mxCell>
                <mxCell id="RI9amsQpQYNxmYegU_Zl-88" value="Neighboorhood opportunities and risks" style="rounded=1;whiteSpace=wrap;html=1;" parent="RI9amsQpQYNxmYegU_Zl-1" vertex="1">
                    <mxGeometry x="870" y="170" width="120" height="60" as="geometry"/>
                </mxCell>
                <mxCell id="RI9amsQpQYNxmYegU_Zl-89" value="Demographic composition + trend" style="rounded=1;whiteSpace=wrap;html=1;" parent="RI9amsQpQYNxmYegU_Zl-1" vertex="1">
                    <mxGeometry x="1040" y="70" width="120" height="60" as="geometry"/>
                </mxCell>
                <mxCell id="RI9amsQpQYNxmYegU_Zl-90" value="Crime and safety and trend" style="rounded=1;whiteSpace=wrap;html=1;" parent="RI9amsQpQYNxmYegU_Zl-1" vertex="1">
                    <mxGeometry x="1040" y="160" width="120" height="60" as="geometry"/>
                </mxCell>
                <mxCell id="RI9amsQpQYNxmYegU_Zl-91" value="Medium price trend" style="rounded=1;whiteSpace=wrap;html=1;" parent="RI9amsQpQYNxmYegU_Zl-1" vertex="1">
                    <mxGeometry x="1040" y="250" width="120" height="60" as="geometry"/>
                </mxCell>
                <mxCell id="RI9amsQpQYNxmYegU_Zl-92" value="Reputation and shift" style="rounded=1;whiteSpace=wrap;html=1;" parent="RI9amsQpQYNxmYegU_Zl-1" vertex="1">
                    <mxGeometry x="870" y="260" width="120" height="60" as="geometry"/>
                </mxCell>
                <mxCell id="RI9amsQpQYNxmYegU_Zl-93" value="Zoning" style="rounded=1;whiteSpace=wrap;html=1;" parent="RI9amsQpQYNxmYegU_Zl-1" vertex="1">
                    <mxGeometry x="-70" y="460" width="120" height="60" as="geometry"/>
                </mxCell>
                <mxCell id="RI9amsQpQYNxmYegU_Zl-94" style="edgeStyle=none;html=1;exitX=0.5;exitY=0;exitDx=0;exitDy=0;" parent="RI9amsQpQYNxmYegU_Zl-1" source="RI9amsQpQYNxmYegU_Zl-95" target="RI9amsQpQYNxmYegU_Zl-98" edge="1">
                    <mxGeometry relative="1" as="geometry"/>
                </mxCell>
                <mxCell id="RI9amsQpQYNxmYegU_Zl-95" value="housing affordability policies and schemes (education)" style="rounded=1;whiteSpace=wrap;html=1;" parent="RI9amsQpQYNxmYegU_Zl-1" vertex="1">
                    <mxGeometry x="530" y="10" width="120" height="60" as="geometry"/>
                </mxCell>
                <mxCell id="RI9amsQpQYNxmYegU_Zl-96" value="Development activity" style="rounded=1;whiteSpace=wrap;html=1;fontStyle=0" parent="RI9amsQpQYNxmYegU_Zl-1" vertex="1">
                    <mxGeometry x="910" y="10" width="120" height="60" as="geometry"/>
                </mxCell>
                <mxCell id="RI9amsQpQYNxmYegU_Zl-97" value="Map overlay" style="rounded=1;whiteSpace=wrap;html=1;fillColor=#dae8fc;strokeColor=#6c8ebf;" parent="RI9amsQpQYNxmYegU_Zl-1" vertex="1">
                    <mxGeometry x="570" y="736.25" width="120" height="60" as="geometry"/>
                </mxCell>
                <mxCell id="RI9amsQpQYNxmYegU_Zl-98" value="Web search, summarization, AI agent to assess applicability" style="rounded=1;whiteSpace=wrap;html=1;fillColor=#dae8fc;strokeColor=#6c8ebf;" parent="RI9amsQpQYNxmYegU_Zl-1" vertex="1">
                    <mxGeometry x="620" y="-90" width="120" height="60" as="geometry"/>
                </mxCell>
                <mxCell id="RI9amsQpQYNxmYegU_Zl-100" value="Affordability" style="rounded=1;whiteSpace=wrap;html=1;" parent="RI9amsQpQYNxmYegU_Zl-1" vertex="1">
                    <mxGeometry x="320" y="40" width="120" height="60" as="geometry"/>
                </mxCell>
                <mxCell id="RI9amsQpQYNxmYegU_Zl-103" value="Deterministic affordability calculatior / simulation" style="rounded=1;whiteSpace=wrap;html=1;fillColor=#dae8fc;strokeColor=#6c8ebf;" parent="RI9amsQpQYNxmYegU_Zl-1" vertex="1">
                    <mxGeometry x="360" y="-80" width="120" height="60" as="geometry"/>
                </mxCell>
                <mxCell id="RI9amsQpQYNxmYegU_Zl-105" value="" style="shape=curlyBracket;whiteSpace=wrap;html=1;rounded=1;flipH=1;labelPosition=right;verticalLabelPosition=middle;align=left;verticalAlign=middle;rotation=0;" parent="RI9amsQpQYNxmYegU_Zl-1" vertex="1">
                    <mxGeometry x="1190" y="40" width="20" height="280" as="geometry"/>
                </mxCell>
                <mxCell id="RI9amsQpQYNxmYegU_Zl-106" value="Web search and agentic analysis" style="rounded=1;whiteSpace=wrap;html=1;fillColor=#dae8fc;strokeColor=#6c8ebf;" parent="RI9amsQpQYNxmYegU_Zl-1" vertex="1">
                    <mxGeometry x="1240" y="160" width="120" height="60" as="geometry"/>
                </mxCell>
                <mxCell id="5Toz2B10r7eTxjFJUqE2-0" value="Sunlight access" style="rounded=1;whiteSpace=wrap;html=1;" parent="RI9amsQpQYNxmYegU_Zl-1" vertex="1">
                    <mxGeometry x="830" y="550" width="120" height="60" as="geometry"/>
                </mxCell>
                <mxCell id="5Toz2B10r7eTxjFJUqE2-4" value="Gentrification signals" style="rounded=1;whiteSpace=wrap;html=1;" parent="RI9amsQpQYNxmYegU_Zl-1" vertex="1">
                    <mxGeometry x="780" y="60" width="120" height="60" as="geometry"/>
                </mxCell>
                <mxCell id="5Toz2B10r7eTxjFJUqE2-5" style="edgeStyle=none;html=1;exitX=0.25;exitY=0;exitDx=0;exitDy=0;entryX=0.644;entryY=0.985;entryDx=0;entryDy=0;entryPerimeter=0;" parent="RI9amsQpQYNxmYegU_Zl-1" source="RI9amsQpQYNxmYegU_Zl-88" target="5Toz2B10r7eTxjFJUqE2-4" edge="1">
                    <mxGeometry relative="1" as="geometry"/>
                </mxCell>
                <mxCell id="PaCVMnnu03Dj6zwFx1qM-1" style="edgeStyle=none;html=1;exitX=0.5;exitY=0;exitDx=0;exitDy=0;entryX=0.388;entryY=0.998;entryDx=0;entryDy=0;entryPerimeter=0;" edge="1" parent="RI9amsQpQYNxmYegU_Zl-1" source="RI9amsQpQYNxmYegU_Zl-100" target="RI9amsQpQYNxmYegU_Zl-103">
                    <mxGeometry relative="1" as="geometry"/>
                </mxCell>
                <mxCell id="PaCVMnnu03Dj6zwFx1qM-2" value="Decision Driver" style="rounded=1;whiteSpace=wrap;html=1;fontStyle=0" vertex="1" parent="RI9amsQpQYNxmYegU_Zl-1">
                    <mxGeometry x="1070" y="-230" width="120" height="60" as="geometry"/>
                </mxCell>
                <mxCell id="PaCVMnnu03Dj6zwFx1qM-3" value="Proposed tools" style="rounded=1;whiteSpace=wrap;html=1;fillColor=#dae8fc;strokeColor=#6c8ebf;" vertex="1" parent="RI9amsQpQYNxmYegU_Zl-1">
                    <mxGeometry x="1210" y="-230" width="120" height="60" as="geometry"/>
                </mxCell>
                <mxCell id="PaCVMnnu03Dj6zwFx1qM-5" value="Legend" style="text;html=1;align=center;verticalAlign=middle;resizable=0;points=[];autosize=1;strokeColor=none;fillColor=none;fontStyle=1" vertex="1" parent="RI9amsQpQYNxmYegU_Zl-1">
                    <mxGeometry x="990" y="-215" width="60" height="30" as="geometry"/>
                </mxCell>
            </root>
        </mxGraphModel>
    </diagram>
</mxfile>